<?xml version="1.0" encoding="UTF-8"?>
<!-- Generated by Pixelmator Pro 3.7.1 -->
<svg width="16" height="16" viewBox="0 0 16 16" xmlns="http://www.w3.org/2000/svg">
    <path id="Path" fill="#ff004d" stroke="none" d="M 12.17 9.53 C 14.477 6.938 15.448 4.846001 15.811 3.312 C 16.021 2.425 16.025 1.732 15.971 1.247 C 15.950023 1.056761 15.913909 0.868498 15.863 0.684 C 15.841683 0.605824 15.815636 0.529016 15.785 0.454 L 15.785 0.453 C 15.712 0.289 15.617 0.219 15.433 0.158 C 15.380313 0.140789 15.326934 0.125776 15.273 0.113 C 15.085489 0.068306 14.894993 0.037225 14.703 0.02 C 14.213 -0.024 13.513 -0.01 12.623 0.208 C 11.087 0.582 9.005 1.551 6.462 3.812 L 4.062 4.05 L 4.056 4.05 C 3.479283 4.114141 2.941689 4.37306 2.532 4.784 L 0.15 7.17 C -0.004696 7.325787 -0.042853 7.562859 0.05515 7.759316 C 0.153152 7.955774 0.365498 8.067884 0.583 8.038 L 2.479 7.767 C 2.759 7.727 3.071 7.780001 3.434 7.899 C 3.666 7.975 3.871 8.059 4.089 8.147 L 4.292 8.23 C 4.488 9.046 4.952 9.81 5.567 10.425 C 6.18 11.039 6.943 11.505 7.758 11.702 L 7.84 11.904 C 7.929 12.122 8.013 12.328 8.089 12.561 C 8.207 12.924 8.261 13.237 8.221 13.517 L 7.95 15.417 C 7.920675 15.634062 8.032674 15.845737 8.228628 15.943601 C 8.424583 16.041466 8.661087 16.003841 8.817 15.85 L 11.199 13.464 C 11.609 13.054 11.867 12.515 11.931 11.938 Z M 12.28 5.830999 C 11.483 6.631001 10.35 6.792 9.752 6.193 C 9.154 5.593 9.316 4.46 10.113 3.661 C 10.911 2.862 12.043 2.701 12.641 3.3 C 13.239 3.899 13.078 5.032 12.281 5.830999 Z"/>
    <path id="path1" fill="#ff004d" stroke="none" d="M 5.205 10.787 C 5.735777 11.324843 6.343798 11.780522 7.009 12.139 C 5.891 13.146 2.08 14.167 1.955 14.042 C 1.829 13.915 2.692 9.853 3.794 8.862 C 4.14 9.552 4.631 10.212 5.205 10.787"/>
</svg>

