<?xml version="1.0" encoding="UTF-8"?>
<!-- Generated by Pixelmator Pro 3.7.1 -->
<svg width="4000" height="462" viewBox="0 0 4000 462" xmlns="http://www.w3.org/2000/svg">
    <path id="d" fill="#ffffff" fill-rule="evenodd" stroke="none" d="M 2790.394531 -0.454895 L 2669.944824 -0.454895 L 2669.944824 174.421204 L 2665.181396 174.421204 C 2642.043945 133.594177 2614.143311 122.706848 2529.760498 122.706848 C 2446.73877 122.706848 2413.393799 128.150513 2384.13208 147.203186 C 2350.106934 169.658081 2337.177246 208.443787 2337.177246 290.098022 C 2337.177246 370.391205 2345.343506 403.052887 2371.883057 427.549194 C 2399.783936 452.725922 2441.294678 461.571686 2528.399414 461.571686 C 2615.504395 461.571686 2647.488037 450.004089 2670.625488 411.218353 L 2676.75 411.218353 L 2676.75 453.406311 L 2790.394531 453.406311 Z M 2569.22998 213.20697 C 2654.973633 213.20697 2670.625488 225.455078 2670.625488 292.139343 C 2670.625488 329.564148 2665.861816 346.575409 2652.251465 355.421265 C 2638.641357 364.947662 2605.977295 370.391205 2561.744629 370.391205 C 2471.237061 370.391205 2457.626953 359.503998 2457.626953 288.737091 C 2457.626953 224.094116 2473.958984 213.20697 2569.22998 213.20697 Z"/>
    <path id="r" fill="#ffffff" fill-rule="evenodd" stroke="none" d="M 1954.732788 131.552856 L 1954.732788 453.406311 L 2075.182373 453.406311 L 2075.182373 320.037872 C 2075.182373 270.364868 2078.584717 252.673096 2090.153564 237.022766 C 2101.721924 222.052856 2124.178711 213.887329 2151.398926 213.887329 C 2201.075928 213.887329 2214.686035 226.815979 2214.686035 274.447571 L 2328.330566 274.447571 L 2328.330566 252.673096 C 2328.330566 156.049072 2295.66626 123.38739 2198.35376 123.38739 C 2130.983643 123.38739 2096.958496 139.037842 2074.501709 179.864868 L 2068.377197 179.864868 L 2068.377197 131.552856 Z"/>
    <path id="a2" fill="#ffffff" fill-rule="evenodd" stroke="none" d="M 1621.965088 232.259644 C 1625.367554 203.000183 1634.214233 200.27832 1720.638428 200.27832 C 1793.452637 200.27832 1802.979736 207.082886 1802.979736 257.43634 L 1802.979736 274.447571 L 1797.535645 274.447571 C 1778.481445 254.033997 1762.149414 249.270874 1706.3479 249.270874 C 1617.881958 249.270874 1586.578735 251.312256 1557.317017 259.477661 C 1510.361938 271.725739 1488.585815 303.707031 1488.585815 361.545319 C 1488.585815 437.755981 1521.930664 461.571686 1628.770142 461.571686 C 1707.028442 461.571686 1737.651001 458.849976 1757.385864 450.684509 C 1779.162109 441.838623 1792.091675 430.270905 1802.299316 409.176941 L 1807.062866 409.176941 L 1807.062866 453.406311 L 1922.748779 453.406311 L 1922.748779 259.477661 C 1922.748779 200.958862 1915.943726 176.462524 1895.528564 154.688171 C 1868.30835 127.470032 1843.810181 122.706848 1738.331665 122.706848 C 1641.699829 122.706848 1585.898193 128.831055 1557.997437 141.759521 C 1520.56958 160.131714 1504.917847 185.308411 1501.515503 232.259644 Z M 1702.264893 317.31604 C 1753.302734 317.31604 1772.357056 317.99646 1779.842651 320.718262 C 1793.452637 325.481415 1800.938232 335.007813 1800.938232 347.93631 C 1800.938232 376.515259 1777.120605 384.680725 1692.057251 384.680725 C 1627.409058 384.680725 1609.035522 377.19577 1609.035522 351.338654 C 1609.035522 324.801025 1628.770142 317.31604 1702.264893 317.31604 Z"/>
    <path id="l2" fill="#ffffff" fill-rule="evenodd" stroke="none" d="M 1344.318604 -0.454895 L 1344.318604 453.406311 L 1464.768188 453.406311 L 1464.768188 -0.454895 Z"/>
    <path id="l" fill="#ffffff" fill-rule="evenodd" stroke="none" d="M 1189.843506 -0.454895 L 1189.843506 453.406311 L 1310.293091 453.406311 L 1310.293091 -0.454895 Z"/>
    <path id="a" fill="#ffffff" fill-rule="evenodd" stroke="none" d="M 857.075867 232.259644 C 860.478455 203.000183 869.325195 200.27832 955.74939 200.27832 C 1028.563599 200.27832 1038.090576 207.082886 1038.090576 257.43634 L 1038.090576 274.447571 L 1032.646484 274.447571 C 1013.592468 254.033997 997.260193 249.270874 941.458801 249.270874 C 852.99292 249.270874 821.689697 251.312256 792.427795 259.477661 C 745.4729 271.725739 723.696777 303.707031 723.696777 361.545319 C 723.696777 437.755981 757.041443 461.571686 863.881104 461.571686 C 942.13916 461.571686 972.761963 458.849976 992.496643 450.684509 C 1014.27301 441.838623 1027.202393 430.270905 1037.410034 409.176941 L 1042.173584 409.176941 L 1042.173584 453.406311 L 1157.859741 453.406311 L 1157.859741 259.477661 C 1157.859741 200.958862 1151.054688 176.462524 1130.639526 154.688171 C 1103.419312 127.470032 1078.921021 122.706848 973.442566 122.706848 C 876.81073 122.706848 821.009155 128.831055 793.108337 141.759521 C 755.680542 160.131714 740.028809 185.308411 736.626404 232.259644 Z M 937.37561 317.31604 C 988.413696 317.31604 1007.467773 317.99646 1014.953369 320.718262 C 1028.563599 325.481415 1036.049194 335.007813 1036.049194 347.93631 C 1036.049194 376.515259 1012.231323 384.680725 927.16803 384.680725 C 862.519958 384.680725 844.146423 377.19577 844.146423 351.338654 C 844.146423 324.801025 863.881104 317.31604 937.37561 317.31604 Z"/>
    <path id="m" fill="#ffffff" fill-rule="evenodd" stroke="none" d="M -0.362051 131.552856 L -0.362051 453.406311 L 120.087601 453.406311 L 120.087601 320.718262 C 120.087601 267.643127 124.17067 247.229553 137.780777 233.620544 C 151.3909 220.011536 175.208618 213.887329 211.275436 213.887329 C 245.981232 213.887329 267.076904 219.330994 277.965088 231.579102 C 289.53363 243.827332 290.894653 252.673096 290.894653 303.02652 L 290.894653 453.406311 L 411.344299 453.406311 L 411.344299 320.718262 C 411.344299 268.323547 415.427368 249.270874 429.037476 234.300903 C 441.967133 220.011536 464.423828 213.887329 500.490662 213.887329 C 535.877014 213.887329 556.292114 219.330994 568.541199 231.579102 C 580.109863 243.14679 581.470886 249.270874 582.151428 303.02652 L 582.151428 453.406311 L 702.600952 453.406311 L 702.600952 303.02652 C 702.600952 220.011536 696.476563 193.473877 668.575745 164.894958 C 640.674988 135.635498 601.205505 123.38739 534.515991 123.38739 C 455.57724 123.38739 416.107819 142.440063 395.692688 190.752075 C 369.833374 143.120422 326.961578 123.38739 249.383835 123.38739 C 177.930664 123.38739 137.10022 141.079102 119.407036 179.864868 L 113.282486 179.864868 L 113.282486 131.552856 Z"/>
    <path id="labs" fill="#ffffff" fill-rule="evenodd" stroke="none" d="M 3682.734131 373.603241 C 3683.220215 400.314789 3689.048584 416.341797 3703.134277 428.969116 C 3723.533936 447.909943 3752.190186 452.766724 3835.731445 452.766724 C 3968.814209 452.766724 3999.899658 437.711029 3999.899658 372.146301 C 3999.899658 320.665833 3974.642822 301.239197 3908.101074 300.75354 C 3819.703125 300.267822 3804.64624 299.782104 3790.560547 298.810883 C 3776.960938 297.8396 3770.161133 292.982849 3770.161133 283.755188 C 3770.161133 269.185303 3786.675049 264.81427 3840.588379 264.81427 C 3869.730713 264.81427 3887.21582 266.756897 3894.501709 271.613525 C 3897.415527 273.556274 3898.386963 275.013184 3900.330078 282.298157 L 3987.75708 282.298157 C 3985.813965 254.615326 3981.442383 242.47374 3969.299805 232.760361 C 3949.871582 216.247726 3921.215332 211.391129 3843.01709 211.391129 C 3782.789307 211.391129 3742.476318 214.790802 3724.019043 222.07579 C 3696.820068 232.274719 3684.191895 253.643951 3684.191895 289.097534 C 3684.191895 338.149658 3711.390869 358.547699 3776.475342 359.518982 C 3860.988037 359.518982 3882.358887 360.004639 3894.015625 360.975922 C 3906.644287 362.432922 3913.929443 368.746643 3913.929443 377.974274 C 3913.929443 394.486816 3897.901367 399.343597 3842.04541 399.343597 C 3788.132324 399.343597 3771.61792 393.515533 3770.161133 373.603241 Z M 3348.084229 123 L 3348.084229 446.93866 L 3429.197021 446.93866 L 3429.197021 416.827423 L 3433.568115 416.827423 C 3450.567871 445.48175 3472.424561 452.766724 3536.537354 452.766724 C 3595.793457 452.766724 3627.850098 445.967377 3646.791992 428.969116 C 3666.220703 411.970825 3672.048828 388.658936 3672.048828 331.350403 C 3672.048828 271.613525 3665.249268 249.273071 3642.906738 232.274719 C 3622.992432 217.219101 3590.936523 210.905396 3534.108887 210.905396 C 3476.796143 210.905396 3454.939209 219.16185 3437.939453 247.816071 L 3434.053711 247.816071 L 3434.053711 123 Z M 3510.30957 275.498901 C 3533.623535 275.498901 3554.508301 277.927307 3565.679443 281.812531 C 3581.221924 288.126221 3586.079102 298.810883 3586.079102 329.407776 C 3586.079102 358.061981 3582.679199 370.689301 3572.965576 377.488556 C 3563.737061 384.287903 3542.851563 387.6875 3511.766602 387.6875 C 3488.938477 387.6875 3467.081543 385.259277 3456.395996 381.859497 C 3438.910889 376.031616 3434.053711 365.346985 3434.053711 332.807434 C 3434.053711 303.181946 3437.939453 291.525879 3450.082275 284.240845 C 3459.796143 278.412842 3480.195801 275.498901 3510.30957 275.498901 Z M 3110.574951 289.097534 C 3113.003418 268.213928 3119.317627 266.271271 3181.001953 266.271271 C 3232.972168 266.271271 3239.772217 271.127869 3239.772217 307.067078 L 3239.772217 319.208832 L 3235.886475 319.208832 C 3222.287109 304.638855 3210.629883 301.239197 3170.802002 301.239197 C 3107.660889 301.239197 3085.318115 302.696198 3064.432861 308.52417 C 3030.919189 317.266174 3015.376953 340.092407 3015.376953 381.373962 C 3015.376953 435.768372 3039.17627 452.766724 3115.432129 452.766724 C 3171.287842 452.766724 3193.144775 450.824066 3207.22998 444.996002 C 3222.772461 438.682404 3232.000977 430.426025 3239.286377 415.370514 L 3242.686523 415.370514 L 3242.686523 446.93866 L 3325.256104 446.93866 L 3325.256104 308.52417 C 3325.256104 266.756897 3320.39917 249.273071 3305.827637 233.731644 C 3286.399902 214.305069 3268.914551 210.905396 3193.630371 210.905396 C 3124.660156 210.905396 3084.83252 215.276535 3064.918701 224.504089 C 3038.205078 237.616959 3027.033691 255.586609 3024.605225 289.097534 Z M 3167.888184 349.805603 C 3204.315918 349.805603 3217.915283 350.29126 3223.258301 352.234009 C 3232.972168 355.633606 3238.314941 362.432922 3238.314941 371.660583 C 3238.314941 392.058624 3221.31543 397.886414 3160.602295 397.886414 C 3114.460449 397.886414 3101.346436 392.544067 3101.346436 374.088959 C 3101.346436 355.147949 3115.432129 349.805603 3167.888184 349.805603 Z M 2912.407715 123 L 2912.407715 446.93866 L 2998.377197 446.93866 L 2998.377197 123 Z"/>
</svg>
